# xmcd CD database file
#
# Track frame offsets:
#	150
#	13525
#	24192
#	41395
#	53160
#	69977
#	81405
#	94860
#	110245
#	123355
#
# Disc length: 1947 seconds
#
# Revision: 2
# Processed by: cddbd v1.5.2PL0 Copyright (c) Steve Scherf et al.
# Submitted via: CDex 1.70beta2
#
DISCID=7907990a
DTITLE=Don Neilson - The Other Side of You
DYEAR=1992
DGENRE=Country
TTITLE0=Still In the Game
TTITLE1=When It's Someone You Love
TTITLE2=My Heart Knows the Truth
TTITLE3=You're My Hometown
TTITLE4=Let Me Be the One
TTITLE5=She Loves Me Again
TTITLE6=The Other Side of You
TTITLE7=More Than I Regret
TTITLE8=Don't Talk About Love
TTITLE9=When It Falls Into Place
EXTD=YEAR: 1992
EXTT0=
EXTT1=
EXTT2=
EXTT3=
EXTT4=
EXTT5=
EXTT6=
EXTT7=
EXTT8=
EXTT9=
PLAYORDER=
